<svg xmlns="http://www.w3.org/2000/svg" id="icon" height="512" viewBox="0 0 128 128" width="512"><path d="m30.462 52.136h69.646v48.079h-69.646z" fill="#eeefee"></path><path d="m36.048 61.92h20.758a.668.668 0 0 1 .668.668v37.627a0 0 0 0 1 0 0h-22.094a0 0 0 0 1 0 0v-37.628a.668.668 0 0 1 .668-.667z" fill="#575b6d"></path><path d="m28.108 72.327h36.638v19.137h-36.638z" fill="#f6b863" transform="matrix(0 1 -1 0 128.323 35.469)"></path><path d="m63.655 64.971h30.667v21.094h-30.667z" fill="#69b0ee"></path><path d="m95.071 48.98h9.929a0 0 0 0 1 0 0v4.82a4.964 4.964 0 0 1 -4.964 4.964 4.964 4.964 0 0 1 -4.965-4.964v-4.82a0 0 0 0 1 0 0z" fill="#da364c"></path><path d="m85.143 48.98h9.929a0 0 0 0 1 0 0v4.82a4.964 4.964 0 0 1 -4.964 4.964 4.964 4.964 0 0 1 -4.965-4.964v-4.82a0 0 0 0 1 0 0z" fill="#dbd8dd"></path><path d="m75.214 48.98h9.929a0 0 0 0 1 0 0v4.82a4.964 4.964 0 0 1 -4.964 4.964 4.964 4.964 0 0 1 -4.965-4.964v-4.82a0 0 0 0 1 0 0z" fill="#da364c"></path><path d="m65.285 48.98h9.929a0 0 0 0 1 0 0v4.82a4.964 4.964 0 0 1 -4.964 4.964 4.964 4.964 0 0 1 -4.965-4.964v-4.82a0 0 0 0 1 0 0z" fill="#dbd8dd"></path><path d="m65.285 48.98v-12.257h7.575l2.354 12.257z" fill="#eeefee"></path><path d="m75.214 48.98-2.354-12.257h7.838l4.445 12.257z" fill="#ef5261"></path><path d="m85.143 48.98-4.445-12.257h7.574l6.799 12.257z" fill="#eeefee"></path><path d="m96.11 36.723 8.89 12.257h-9.929l-6.799-12.257z" fill="#ef5261"></path><path d="m30.534 48.98a4.964 4.964 0 0 1 4.966 4.964v4.82a0 0 0 0 1 0 0h-9.93a0 0 0 0 1 0 0v-4.82a4.964 4.964 0 0 1 4.964-4.964z" fill="#dbd8dd" transform="matrix(-1 0 0 -1 61.069 107.743)"></path><path d="m40.463 48.98a4.964 4.964 0 0 1 4.964 4.964v4.82a0 0 0 0 1 0 0h-9.927a0 0 0 0 1 0 0v-4.82a4.964 4.964 0 0 1 4.963-4.964z" fill="#da364c" transform="matrix(-1 0 0 -1 80.926 107.743)"></path><path d="m50.392 48.98a4.964 4.964 0 0 1 4.964 4.964v4.82a0 0 0 0 1 0 0h-9.928a0 0 0 0 1 0 0v-4.82a4.964 4.964 0 0 1 4.964-4.964z" fill="#dbd8dd" transform="matrix(-1 0 0 -1 100.784 107.743)"></path><path d="m60.321 48.98a4.964 4.964 0 0 1 4.964 4.964v4.82a0 0 0 0 1 0 0h-9.929a0 0 0 0 1 0 0v-4.82a4.964 4.964 0 0 1 4.965-4.964z" fill="#da364c" transform="matrix(-1 0 0 -1 120.641 107.743)"></path><path d="m65.285 48.98v-12.257h-7.575l-2.354 12.257z" fill="#ef5261"></path><path d="m55.356 48.98 2.354-12.257h-7.838l-4.444 12.257z" fill="#eeefee"></path><path d="m45.428 48.98 4.444-12.257h-7.574l-6.799 12.257z" fill="#ef5261"></path><path d="m34.46 36.723-8.89 12.257h9.929l6.799-12.257z" fill="#eeefee"></path><rect fill="#ef5261" height="4.892" rx=".668" width="77.326" x="26.622" y="98.689"></rect><g fill="#575b6d"><path d="m62.76 65.234v20.881a.631.631 0 0 0 .631.631h31.2a.631.631 0 0 0 .631-.631v-20.881a.631.631 0 0 0 -.631-.631h-31.2a.631.631 0 0 0 -.631.631zm30.994 20.124h-29.529v-19.358h29.529z"></path><path d="m78.252 65.549h1.473v20.515h-1.473z"></path><path d="m78.252 60.473h1.473v30.667h-1.473z" transform="matrix(0 1 -1 0 154.795 -3.181)"></path></g><circle cx="52.7" cy="81.065" fill="#eaa14e" r="1.25"></circle><path d="m39.172 30.5c0 8.519-8.086 16.846-8.086 16.846s-8.086-8.274-8.086-16.846a8.086 8.086 0 1 1 16.172 0z" fill="#ef5261"></path><circle cx="31.086" cy="30.505" fill="#eeefee" r="4.394"></circle></svg>